<svg xmlns="http://www.w3.org/2000/svg" viewBox="0 0 64 64">
  <defs>
    <linearGradient id="bg" x1="10" y1="6" x2="54" y2="58" gradientUnits="userSpaceOnUse">
      <stop stop-color="#1D4ED8"/>
      <stop offset="0.48" stop-color="#0F766E"/>
      <stop offset="1" stop-color="#111827"/>
    </linearGradient>
    <linearGradient id="door" x1="22" y1="17" x2="43" y2="48" gradientUnits="userSpaceOnUse">
      <stop stop-color="#F8FAFC"/>
      <stop offset="1" stop-color="#CBD5E1"/>
    </linearGradient>
  </defs>
  <rect width="64" height="64" rx="14" fill="url(#bg)"/>
  <path d="M18 25c0-3.9 3.1-7 7-7h14c3.9 0 7 3.1 7 7v23H18V25Z" fill="#0B1220" opacity=".55"/>
  <path d="M23 26c0-2.2 1.8-4 4-4h10c2.2 0 4 1.8 4 4v19H23V26Z" fill="url(#door)"/>
  <path d="M28 28h8M28 34h8M28 40h5" stroke="#0F172A" stroke-width="3" stroke-linecap="round"/>
  <path d="M15 43h28" stroke="#5EEAD4" stroke-width="4" stroke-linecap="round"/>
  <path d="m36 35 8 8-8 8" fill="none" stroke="#5EEAD4" stroke-width="4" stroke-linecap="round" stroke-linejoin="round"/>
  <circle cx="44" cy="20" r="5" fill="#FACC15"/>
  <path d="M44 16v8M40 20h8" stroke="#111827" stroke-width="2" stroke-linecap="round"/>
</svg>
